<?xml version="1.0" encoding="UTF-8" standalone="no"?>
<!DOCTYPE svg PUBLIC "-//W3C//DTD SVG 1.1//EN" "http://www.w3.org/Graphics/SVG/1.1/DTD/svg11.dtd">
<svg width="100%" height="100%" viewBox="0 0 1285 340" version="1.1" xmlns="http://www.w3.org/2000/svg" xmlns:xlink="http://www.w3.org/1999/xlink" xml:space="preserve" xmlns:serif="http://www.serif.com/" style="fill-rule:evenodd;clip-rule:evenodd;stroke-linejoin:round;stroke-miterlimit:2;">
    <g transform="matrix(1,0,0,1,-349.945,-656.401)">
        <g>
            <g transform="matrix(0.867931,-0.496685,0.496685,0.867931,-416.26,332.769)">
                <text x="417.608px" y="949.12px" style="font-family:'Satisfy-Regular', 'Satisfy';font-size:180px;">B</text>
            </g>
            <g transform="matrix(0.903379,-0.428844,0.428844,0.903379,-334.532,306.507)">
                <text x="512.933px" y="895.646px" style="font-family:'Satisfy-Regular', 'Satisfy';font-size:180px;">i</text>
            </g>
            <g transform="matrix(0.924809,-0.380432,0.380432,0.924809,-290.423,277.779)">
                <text x="557.504px" y="873.592px" style="font-family:'Satisfy-Regular', 'Satisfy';font-size:180px;">g</text>
            </g>
            <g transform="matrix(0.965309,-0.261112,0.261112,0.965309,-191.679,206.518)">
                <text x="681.361px" y="824.613px" style="font-family:'Satisfy-Regular', 'Satisfy';font-size:180px;">F</text>
            </g>
            <g transform="matrix(0.985117,-0.171883,0.171883,0.985117,-125.365,146.52)">
                <text x="783.416px" y="797.195px" style="font-family:'Satisfy-Regular', 'Satisfy';font-size:180px;">a</text>
            </g>
            <g transform="matrix(0.995805,-0.0914995,0.0914995,0.995805,-68.0533,82.006)">
                <text x="860.34px" y="783.199px" style="font-family:'Satisfy-Regular', 'Satisfy';font-size:180px;">n</text>
            </g>
            <g transform="matrix(0.999945,-0.0105062,0.0105062,0.999945,-8.09516,9.95364)">
                <text x="943.337px" y="775.472px" style="font-family:'Satisfy-Regular', 'Satisfy';font-size:180px;">c</text>
            </g>
            <g transform="matrix(0.998601,0.0528737,-0.0528737,0.998601,42.3683,-52.2478)">
                <text x="1008.65px" y="774.626px" style="font-family:'Satisfy-Regular', 'Satisfy';font-size:180px;">y</text>
            </g>
            <g transform="matrix(0.975219,0.22124,-0.22124,0.975219,201.517,-231.038)">
                <text x="1132.11px" y="784.049px" style="font-family:'Satisfy-Regular', 'Satisfy';font-size:180px;">H</text>
            </g>
            <g transform="matrix(0.945154,0.326624,-0.326624,0.945154,333.201,-362.464)">
                <text x="1245.9px" y="810.93px" style="font-family:'Satisfy-Regular', 'Satisfy';font-size:180px;">e</text>
            </g>
            <g transform="matrix(0.91704,0.398795,-0.398795,0.91704,440.486,-453.146)">
                <text x="1309.4px" y="832.154px" style="font-family:'Satisfy-Regular', 'Satisfy';font-size:180px;">a</text>
            </g>
            <g transform="matrix(0.879677,0.475571,-0.475571,0.879677,576.637,-553.312)">
                <text x="1381.79px" y="862.912px" style="font-family:'Satisfy-Regular', 'Satisfy';font-size:180px;">d</text>
            </g>
            <g transform="matrix(0.842433,0.5388,-0.5388,0.842433,716.887,-643.199)">
                <text x="1458.16px" y="904.102px" style="font-family:'Satisfy-Regular', 'Satisfy';font-size:180px;">e</text>
            </g>
            <g transform="matrix(0.810432,0.585833,-0.585833,0.810432,837.82,-709.189)">
                <text x="1514.73px" y="939.988px" style="font-family:'Satisfy-Regular', 'Satisfy';font-size:180px;">r</text>
            </g>
        </g>
    </g>
</svg>
